<svg width="3971" height="909" viewBox="0 0 3971 909" fill="none" xmlns="http://www.w3.org/2000/svg">
<path d="M123.63 130.4C123.63 102.4 120.83 81.8667 115.23 68.8C109.63 55.7333 98.4305 46.8666 81.6305 42.1999C65.7638 36.5999 40.0971 33.8 4.63047 33.8C2.7638 33.8 1.83047 31 1.83047 25.4C1.83047 19.8 2.7638 17 4.63047 17L74.6305 18.4C113.83 20.2666 145.097 21.1999 168.43 21.1999C195.497 21.1999 228.63 20.2666 267.83 18.4L333.631 17C336.43 17 337.83 19.8 337.83 25.4C337.83 31 336.43 33.8 333.631 33.8C299.097 33.8 273.43 36.5999 256.63 42.1999C240.764 47.8 229.564 57.6 223.03 71.6C217.43 84.6666 214.63 105.2 214.63 133.2V778.6C214.63 807.533 217.43 828.533 223.03 841.6C228.63 854.667 239.364 863.533 255.23 868.2C272.03 872.867 298.164 875.2 333.631 875.2C336.43 875.2 337.83 878 337.83 883.6C337.83 889.2 336.43 892 333.631 892C305.63 892 283.23 891.533 266.43 890.6L168.43 889.2L73.2305 890.6C56.4305 891.533 33.0971 892 3.23047 892C1.3638 892 0.430468 889.2 0.430468 883.6C0.430468 878 1.3638 875.2 3.23047 875.2C38.6971 875.2 64.3638 872.867 80.2305 868.2C97.0305 863.533 108.23 854.667 113.83 841.6C120.364 827.6 123.63 806.6 123.63 778.6V130.4ZM252.43 409L322.43 353L526.83 613.4C594.964 702.067 646.764 764.6 682.231 801C718.631 837.4 746.631 858.867 766.231 865.4C785.83 871.933 814.297 875.2 851.631 875.2C854.431 875.2 855.831 878 855.831 883.6C855.831 889.2 854.431 892 851.631 892H694.831C687.364 892 673.83 892 654.23 892C635.564 892.933 608.964 869.6 574.43 822C539.897 773.467 506.764 729.133 475.03 689L252.43 409ZM514.23 130.4C545.03 99.6 560.431 76.7333 560.431 61.7999C560.431 43.1333 532.897 33.8 477.83 33.8C475.964 33.8 475.03 31 475.03 25.4C475.03 19.8 475.964 17 477.83 17L538.031 18.4C575.364 20.2666 609.43 21.1999 640.23 21.1999C671.03 21.1999 703.23 20.2666 736.83 18.4L788.63 17C791.431 17 792.831 19.8 792.831 25.4C792.831 31 791.431 33.8 788.63 33.8C750.364 33.8 709.764 42.2 666.83 59C623.897 75.8 583.764 102.4 546.43 138.8L188.03 490.2H153.03L514.23 130.4ZM1299.96 908.8C1213.16 908.8 1135.69 888.733 1067.56 848.6C1000.36 807.533 948.092 752.467 910.759 683.4C874.359 613.4 856.159 537.333 856.159 455.2C856.159 359.067 880.425 276.933 928.959 208.8C977.492 139.733 1039.56 87.9333 1115.16 53.3999C1191.69 18.8666 1269.63 1.59995 1348.96 1.59995C1437.63 1.59995 1515.56 22.6 1582.76 64.6C1649.96 105.667 1701.29 160.267 1736.76 228.4C1773.16 296.533 1791.36 368.867 1791.36 445.4C1791.36 530.333 1768.96 608.267 1724.16 679.2C1679.36 750.133 1619.16 806.133 1543.56 847.2C1468.89 888.267 1387.69 908.8 1299.96 908.8ZM1348.96 879.4C1412.43 879.4 1469.36 864 1519.76 833.2C1571.09 802.4 1611.23 757.6 1640.16 698.8C1670.03 639.067 1684.96 567.667 1684.96 484.6C1684.96 396.867 1668.63 318.933 1635.96 250.8C1603.29 182.667 1557.09 129.467 1497.36 91.2C1438.56 52.9333 1369.49 33.8 1290.16 33.8C1187.49 33.8 1107.23 66.9333 1049.36 133.2C991.492 199.467 962.559 290.467 962.559 406.2C962.559 493.933 978.892 574.2 1011.56 647C1044.23 718.867 1089.96 775.8 1148.76 817.8C1207.56 858.867 1274.29 879.4 1348.96 879.4ZM2090.43 773C2090.43 800.067 2093.23 819.667 2098.83 831.8C2104.43 843.933 2114.7 852.333 2129.63 857C2144.57 860.733 2168.83 862.6 2202.43 862.6H2355.03C2408.23 862.6 2450.7 846.267 2482.43 813.6C2514.17 780.933 2535.17 735.667 2545.43 677.8C2545.43 675 2547.77 674.067 2552.43 675C2558.03 675 2560.83 676.4 2560.83 679.2C2552.43 756.667 2548.23 820.6 2548.23 871C2548.23 878.467 2546.83 884.067 2544.03 887.8C2541.23 890.6 2535.63 892 2527.23 892H1880.43C1878.57 892 1877.63 889.2 1877.63 883.6C1877.63 878 1878.57 875.2 1880.43 875.2C1915.9 875.2 1941.57 872.867 1957.43 868.2C1974.23 863.533 1985.43 854.667 1991.03 841.6C1996.63 827.6 1999.43 806.6 1999.43 778.6V130.4C1999.43 102.4 1996.63 81.8667 1991.03 68.8C1985.43 55.7333 1974.23 46.8666 1957.43 42.1999C1941.57 36.5999 1915.9 33.8 1880.43 33.8C1878.57 33.8 1877.63 31 1877.63 25.4C1877.63 19.8 1878.57 17 1880.43 17L1949.03 18.4C1988.23 20.2666 2019.97 21.1999 2044.23 21.1999C2070.37 21.1999 2103.03 20.2666 2142.23 18.4L2209.43 17C2212.23 17 2213.63 19.8 2213.63 25.4C2213.63 31 2212.23 33.8 2209.43 33.8C2174.9 33.8 2149.23 36.5999 2132.43 42.1999C2115.63 46.8666 2104.43 56.1999 2098.83 70.2C2093.23 83.2666 2090.43 103.8 2090.43 131.8V773ZM2828.52 778.6C2828.52 807.533 2831.32 828.533 2836.92 841.6C2842.52 854.667 2853.25 863.533 2869.12 868.2C2885.92 872.867 2912.05 875.2 2947.52 875.2C2950.32 875.2 2951.72 878 2951.72 883.6C2951.72 889.2 2950.32 892 2947.52 892C2919.52 892 2897.12 891.533 2880.32 890.6L2780.92 889.2L2684.32 890.6C2667.52 891.533 2644.65 892 2615.72 892C2612.92 892 2611.52 889.2 2611.52 883.6C2611.52 878 2612.92 875.2 2615.72 875.2C2651.18 875.2 2676.85 872.867 2692.72 868.2C2709.52 863.533 2720.72 854.667 2726.32 841.6C2732.85 827.6 2736.12 806.6 2736.12 778.6V130.4C2736.12 102.4 2732.85 81.8667 2726.32 68.8C2720.72 55.7333 2709.52 46.8666 2692.72 42.1999C2676.85 36.5999 2651.18 33.8 2615.72 33.8C2612.92 33.8 2611.52 31 2611.52 25.4C2611.52 19.8 2612.92 17 2615.72 17L2684.32 18.4C2723.52 20.2666 2755.72 21.1999 2780.92 21.1999C2808.92 21.1999 2842.52 20.2666 2881.72 18.4L2947.52 17C2950.32 17 2951.72 19.8 2951.72 25.4C2951.72 31 2950.32 33.8 2947.52 33.8C2912.98 33.8 2887.32 36.5999 2870.52 42.1999C2853.72 47.8 2842.52 57.6 2836.92 71.6C2831.32 84.6666 2828.52 105.2 2828.52 133.2V778.6ZM3272.36 479H3643.36L3653.16 507H3258.36L3272.36 479ZM3965.36 875.2C3969.1 875.2 3970.96 878 3970.96 883.6C3970.96 889.2 3969.1 892 3965.36 892C3947.63 892 3920.1 891.067 3882.76 889.2C3845.43 887.333 3818.36 886.4 3801.56 886.4C3781.03 886.4 3754.9 887.333 3723.16 889.2C3693.3 891.067 3670.43 892 3654.56 892C3650.83 892 3648.96 889.2 3648.96 883.6C3648.96 878 3650.83 875.2 3654.56 875.2C3690.03 875.2 3715.23 871.933 3730.16 865.4C3746.03 858.867 3753.96 847.2 3753.96 830.4C3753.96 816.4 3748.36 796.8 3737.16 771.6L3426.36 115L3461.36 71.6L3189.76 714.2C3176.7 745.933 3170.16 772.067 3170.16 792.6C3170.16 847.667 3215.9 875.2 3307.36 875.2C3312.03 875.2 3314.36 878 3314.36 883.6C3314.36 889.2 3312.03 892 3307.36 892C3290.56 892 3266.3 891.067 3234.56 889.2C3199.1 887.333 3168.3 886.4 3142.16 886.4C3117.9 886.4 3089.9 887.333 3058.16 889.2C3030.16 891.067 3006.83 892 2988.16 892C2983.5 892 2981.16 889.2 2981.16 883.6C2981.16 878 2983.5 875.2 2988.16 875.2C3014.3 875.2 3036.23 870.533 3053.96 861.2C3072.63 850.933 3089.9 833.667 3105.76 809.4C3122.56 784.2 3140.76 748.267 3160.36 701.6L3455.76 4.4C3457.63 1.59998 3460.9 0.199966 3465.56 0.199966C3470.23 0.199966 3473.03 1.59998 3473.96 4.4L3804.36 700.2C3836.1 769.267 3863.16 815.933 3885.56 840.2C3907.96 863.533 3934.56 875.2 3965.36 875.2Z" fill="#D8D5BA"/>
</svg>
