<svg xmlns="http://www.w3.org/2000/svg" width="320" height="320" viewBox="0 0 320 320" fill="none">
  <rect width="320" height="320" fill="none"/>
  <circle cx="18" cy="22" r="1.2" fill="#0d2f20" fill-opacity="0.08"/>
  <circle cx="72" cy="64" r="1.4" fill="#0d2f20" fill-opacity="0.06"/>
  <circle cx="132" cy="34" r="1.1" fill="#0d2f20" fill-opacity="0.07"/>
  <circle cx="204" cy="78" r="1.6" fill="#0d2f20" fill-opacity="0.05"/>
  <circle cx="268" cy="42" r="1.2" fill="#0d2f20" fill-opacity="0.08"/>
  <circle cx="36" cy="114" r="1.3" fill="#0d2f20" fill-opacity="0.06"/>
  <circle cx="98" cy="142" r="1.6" fill="#0d2f20" fill-opacity="0.05"/>
  <circle cx="162" cy="120" r="1.1" fill="#0d2f20" fill-opacity="0.07"/>
  <circle cx="232" cy="156" r="1.3" fill="#0d2f20" fill-opacity="0.06"/>
  <circle cx="294" cy="128" r="1.4" fill="#0d2f20" fill-opacity="0.05"/>
  <circle cx="20" cy="196" r="1.2" fill="#0d2f20" fill-opacity="0.07"/>
  <circle cx="84" cy="214" r="1.5" fill="#0d2f20" fill-opacity="0.06"/>
  <circle cx="140" cy="196" r="1.1" fill="#0d2f20" fill-opacity="0.08"/>
  <circle cx="206" cy="224" r="1.4" fill="#0d2f20" fill-opacity="0.05"/>
  <circle cx="274" cy="204" r="1.3" fill="#0d2f20" fill-opacity="0.06"/>
  <circle cx="46" cy="278" r="1.4" fill="#0d2f20" fill-opacity="0.06"/>
  <circle cx="118" cy="286" r="1.2" fill="#0d2f20" fill-opacity="0.07"/>
  <circle cx="188" cy="274" r="1.5" fill="#0d2f20" fill-opacity="0.05"/>
  <circle cx="250" cy="288" r="1.1" fill="#0d2f20" fill-opacity="0.08"/>
  <circle cx="302" cy="260" r="1.3" fill="#0d2f20" fill-opacity="0.06"/>
</svg>
